<svg xmlns="http://www.w3.org/2000/svg" width="1000" height="1000" viewBox="0 0 1000 1000" shape-rendering="crispEdges">
    <rect width="1000" height="1000" fill="black"/>
    <g transform="translate(83 83) scale(104.25 119.14285714285714)">
        <rect x="0" y="0" width="1" height="1" fill="white"/>
        <rect x="1" y="0" width="1" height="1" fill="white"/>
        <rect x="3" y="0" width="1" height="1" fill="white"/>
        <rect x="5" y="0" width="1" height="1" fill="white"/>
        <rect x="6" y="0" width="1" height="1" fill="white"/>
        <rect x="0" y="1" width="1" height="1" fill="white"/>
        <rect x="1" y="1" width="1" height="1" fill="white"/>
        <rect x="3" y="1" width="1" height="1" fill="white"/>
        <rect x="6" y="1" width="1" height="1" fill="white"/>
        <rect x="0" y="2" width="1" height="1" fill="white"/>
        <rect x="1" y="2" width="1" height="1" fill="white"/>
        <rect x="3" y="2" width="1" height="1" fill="white"/>
        <rect x="4" y="2" width="1" height="1" fill="white"/>
        <rect x="6" y="2" width="1" height="1" fill="white"/>
        <rect x="0" y="3" width="1" height="1" fill="white"/>
        <rect x="1" y="3" width="1" height="1" fill="white"/>
        <rect x="4" y="3" width="1" height="1" fill="white"/>
        <rect x="7" y="3" width="1" height="1" fill="white"/>
        <rect x="0" y="4" width="1" height="1" fill="white"/>
        <rect x="1" y="4" width="1" height="1" fill="white"/>
        <rect x="3" y="4" width="1" height="1" fill="white"/>
        <rect x="5" y="4" width="1" height="1" fill="white"/>
        <rect x="7" y="4" width="1" height="1" fill="white"/>
        <rect x="0" y="5" width="1" height="1" fill="white"/>
        <rect x="1" y="5" width="1" height="1" fill="white"/>
        <rect x="3" y="5" width="1" height="1" fill="white"/>
        <rect x="4" y="5" width="1" height="1" fill="white"/>
        <rect x="0" y="6" width="1" height="1" fill="white"/>
        <rect x="1" y="6" width="1" height="1" fill="white"/>
        <rect x="3" y="6" width="1" height="1" fill="white"/>
        <rect x="4" y="6" width="1" height="1" fill="white"/>
    </g>
</svg>